<?xml version="1.0" encoding="utf-8"?>
<!-- Generator: Adobe Illustrator 21.1.0, SVG Export Plug-In . SVG Version: 6.00 Build 0)  -->
<svg version="1.1" id="Layer_1" xmlns="http://www.w3.org/2000/svg" xmlns:xlink="http://www.w3.org/1999/xlink" x="0px" y="0px"
	 viewBox="0 0 67 20" style="enable-background:new 0 0 67 20;" xml:space="preserve">
<style type="text/css">
	.st0{fill:#FFFFFF;}
</style>
<g>
	<g>
		<path class="st0" d="M9.3,4.4v3.3c0,2.8-1.6,4.1-4.6,4.1H2v8H0V0.2h4.7C7.7,0.2,9.3,1.6,9.3,4.4z M7.3,4.9c0-2-0.8-2.8-2.7-2.8H2
			v7.9h2.6c1.9,0,2.7-0.8,2.7-2.8V4.9z"/>
		<path class="st0" d="M19.7,19.9h-7.6V0.2h2V18h5.6V19.9z"/>
		<path class="st0" d="M21.9,19.9V0.2h7.9V2h-5.9v7h5v1.8h-5v7.2h6v1.8H21.9z"/>
		<path class="st0" d="M40.7,19.9l-3-8.2h-0.2h-2.7v8.2h-2V0.2h4.7c3,0,4.6,1.3,4.6,4.1v3c0,2-0.9,3.3-2.5,3.8l3.2,8.5h-2.1V19.9z
			 M34.8,9.7h2.6c1.9,0,2.7-0.8,2.7-2.8v-2c0-2-0.8-2.8-2.7-2.8h-2.6V9.7z"/>
		<path class="st0" d="M49.7,0h0.2c3,0,4.6,1.3,4.6,4.1v11.8c0,2.8-1.6,4.1-4.6,4.1h-0.2c-3,0-4.6-1.3-4.6-4.1V4.1
			C45.1,1.3,46.8,0,49.7,0z M49.8,18.3c1.9,0,2.7-0.8,2.7-2.8V4.6c0-2-0.8-2.8-2.7-2.8s-2.7,0.8-2.7,2.8v10.8
			C47.1,17.5,48,18.3,49.8,18.3z"/>
		<path class="st0" d="M62.8,19.9h-2v-7.4L56.5,0.2h2.1l3.1,9.8l3.2-9.8H67l-4.2,12.2C62.8,12.4,62.8,19.9,62.8,19.9z"/>
	</g>
	<path class="st0" d="M49.8,13.6c0.8,0,1.1-0.3,1.1-1.2V7.7c0-0.9-0.3-1.2-1.1-1.2s-1.1,0.3-1.1,1.2v4.6
		C48.7,13.3,49,13.6,49.8,13.6z"/>
</g>
</svg>
